<svg width="33" height="33" viewBox="0 0 33 33" fill="none" xmlns="http://www.w3.org/2000/svg">
<g clip-path="url(#clip0_73_7)">
<path d="M20.8218 21.9786C26.5716 21.9786 31.2327 17.3175 31.2327 11.5677C31.2327 5.81788 26.5716 1.15676 20.8218 1.15676C15.072 1.15676 10.4109 5.81788 10.4109 11.5677C10.4109 17.3175 15.072 21.9786 20.8218 21.9786Z" stroke="white" stroke-opacity="0.6" stroke-width="2.31353" stroke-linecap="round" stroke-linejoin="round"/>
<path d="M23.7138 8.49066C23.4293 8.06274 23.0533 7.70333 22.613 7.4384C22.1727 7.17347 21.679 7.00964 21.1677 6.95873C20.6563 6.90781 20.1401 6.97109 19.6562 7.144C19.1723 7.31691 18.7328 7.59512 18.3695 7.95855" stroke="white" stroke-opacity="0.6" stroke-width="2.31353" stroke-linecap="round" stroke-linejoin="round"/>
<path d="M1.15674 31.2327L14.0663 19.5031" stroke="white" stroke-opacity="0.6" stroke-width="2.31353" stroke-linecap="round" stroke-linejoin="round"/>
</g>
<defs>
<clipPath id="clip0_73_7">
<rect width="32.3895" height="32.3895" fill="white"/>
</clipPath>
</defs>
</svg>
